<?xml version="1.0" standalone="no"?>
<!DOCTYPE svg PUBLIC "-//W3C//DTD SVG 20010904//EN"
 "http://www.w3.org/TR/2001/REC-SVG-20010904/DTD/svg10.dtd">
<svg version="1.0" xmlns="http://www.w3.org/2000/svg"
 width="300.000000pt" height="300.000000pt" viewBox="0 0 300.000000 300.000000"
 preserveAspectRatio="xMidYMid meet">
<metadata>
Created by potrace 1.14, written by Peter Selinger 2001-2017
</metadata>
<g transform="translate(0.000000,300.000000) scale(0.100000,-0.100000)"
fill="#000000" stroke="none">
<path d="M1685 2234 c-171 -27 -305 -115 -361 -237 -24 -53 -28 -75 -28 -147
0 -194 102 -285 415 -369 179 -48 241 -74 279 -118 25 -28 30 -42 30 -87 0
-73 -33 -117 -120 -159 -66 -31 -204 -30 -278 2 -64 29 -108 77 -124 137 l-12
44 -114 0 -115 0 6 -55 c12 -121 99 -241 214 -296 157 -75 411 -77 566 -6 74
34 151 107 184 175 25 51 28 68 28 157 0 119 -19 167 -93 241 -64 63 -161 106
-340 153 -203 54 -254 82 -282 156 -29 76 31 168 126 196 72 20 169 16 231
-10 61 -27 90 -56 108 -108 l13 -38 111 -3 111 -3 0 35 c0 133 -135 277 -304
322 -55 15 -202 25 -251 18z"/>
<path d="M127 1899 c-26 -4 -64 -16 -85 -27 l-37 -19 -3 -83 c-3 -76 -1 -82
15 -75 75 30 176 3 213 -57 19 -31 20 -49 20 -380 l0 -348 115 0 115 0 0 318
c0 187 4 332 10 354 31 110 146 158 250 106 84 -43 85 -44 88 -435 l3 -343
114 0 115 0 0 358 c0 393 -5 441 -58 517 -32 46 -91 89 -146 105 -56 17 -167
15 -225 -5 -55 -18 -133 -81 -157 -126 -18 -35 -30 -37 -38 -6 -10 39 -65 95
-119 120 -59 28 -120 37 -190 26z"/>
</g>
</svg>
